<?xml version="1.0" encoding="utf-8"?>
<!-- Generator: Adobe Illustrator 11.0, SVG Export Plug-In . SVG Version: 6.0.0 Build 78)  -->
<!DOCTYPE svg PUBLIC "-//W3C//DTD SVG 1.0//EN" "http://www.w3.org/TR/2001/REC-SVG-20010904/DTD/svg10.dtd" [
<!ENTITY ns_flows "http://ns.adobe.com/Flows/1.0/">
<!ENTITY ns_extend "http://ns.adobe.com/Extensibility/1.0/">
<!ENTITY ns_ai "http://ns.adobe.com/AdobeIllustrator/10.0/">
<!ENTITY ns_graphs "http://ns.adobe.com/Graphs/1.0/">
<!ENTITY ns_vars "http://ns.adobe.com/Variables/1.0/">
<!ENTITY ns_imrep "http://ns.adobe.com/ImageReplacement/1.0/">
<!ENTITY ns_sfw "http://ns.adobe.com/SaveForWeb/1.0/">
<!ENTITY ns_custom "http://ns.adobe.com/GenericCustomNamespace/1.0/">
<!ENTITY ns_adobe_xpath "http://ns.adobe.com/XPath/1.0/">
<!ENTITY ns_svg "http://www.w3.org/2000/svg">
<!ENTITY ns_xlink "http://www.w3.org/1999/xlink">
]>
<svg xmlns:x="http://ns.adobe.com/Extensibility/1.0/" xmlns:i="http://ns.adobe.com/AdobeIllustrator/10.0/" xmlns:graph="http://ns.adobe.com/Graphs/1.0/" xmlns="http://www.w3.org/2000/svg" xmlns:xlink="http://www.w3.org/1999/xlink" xmlns:a="http://ns.adobe.com/AdobeSVGViewerExtensions/3.0/" xmlns:svg="http://www.w3.org/2000/svg" xmlns:dc="http://purl.org/dc/elements/1.1/" xmlns:cc="http://web.resource.org/cc/" xmlns:rdf="http://www.w3.org/1999/02/22-rdf-syntax-ns#" i:viewOrigin="227.5708 736.5112" i:rulerOrigin="0 0" i:pageBounds="0 792 612 0" width="254.763" height="254.763" viewBox="0 0 254.763 254.763" overflow="visible" enable-background="new 0 0 254.763 254.763" xml:space="preserve">
	
		<g id="Layer_1" i:layer="yes" i:dimmedPercent="50" i:rgbTrio="#4F008000FFFF">
			<path i:knockout="Off" fill="#FFFF00" stroke="#000000" d="M127.382,0.5C57.307,0.5,0.5,57.307,0.5,127.381     c0,70.075,56.807,126.882,126.882,126.882c70.074,0,126.881-56.807,126.881-126.882C254.263,57.307,197.457,0.5,127.382,0.5z      M172.542,49.425c11.58,0,20.969,13.961,20.969,31.183s-9.389,31.183-20.969,31.183s-20.967-13.961-20.967-31.183     S160.962,49.425,172.542,49.425z M82.22,49.425c11.58,0,20.968,13.961,20.968,31.183S93.8,111.79,82.22,111.79     S61.252,97.829,61.252,80.607S70.64,49.425,82.22,49.425z M127.382,220.93c-36.911,0-69.268-19.478-87.367-48.712     c23.301,17.601,53.877,28.282,87.367,28.282c33.488,0,64.066-10.682,87.365-28.282C196.65,201.453,164.292,220.93,127.382,220.93     z"/>
			<path i:knockout="Off" stroke="#000000" d="M127.382,200.5c-33.49,0-64.066-10.682-87.367-28.282     c18.1,29.234,50.456,48.712,87.367,48.712c36.91,0,69.268-19.478,87.365-48.712C191.449,189.819,160.871,200.5,127.382,200.5z      M82.22,111.79c11.58,0,20.968-13.961,20.968-31.183S93.8,49.425,82.22,49.425S61.252,63.386,61.252,80.607     S70.64,111.79,82.22,111.79z M172.542,111.79c11.58,0,20.969-13.961,20.969-31.183s-9.389-31.183-20.969-31.183     s-20.967,13.961-20.967,31.183S160.962,111.79,172.542,111.79z"/>
		</g>
	<metadata><rdf:RDF><cc:Work><dc:format>image/svg+xml</dc:format><dc:type rdf:resource="http://purl.org/dc/dcmitype/StillImage"/><cc:license rdf:resource="http://creativecommons.org/licenses/publicdomain/"/><dc:publisher><cc:Agent rdf:about="http://openclipart.org/"><dc:title>Open Clip Art Library</dc:title></cc:Agent></dc:publisher><dc:title>Smiley - Yellow and Black</dc:title><dc:date>2007-02-08T15:21:26</dc:date><dc:description>This is another smiley face with yellow body and black features.</dc:description><dc:source>http://openclipart.org/detail/3127/smiley---yellow-and-black-by-azieser</dc:source><dc:creator><cc:Agent><dc:title>azieser</dc:title></cc:Agent></dc:creator><dc:subject><rdf:Bag><rdf:li>black</rdf:li><rdf:li>black</rdf:li><rdf:li>clip art</rdf:li><rdf:li>clipart</rdf:li><rdf:li>image</rdf:li><rdf:li>media</rdf:li><rdf:li>public domain</rdf:li><rdf:li>smiley face</rdf:li><rdf:li>smiley face</rdf:li><rdf:li>svg</rdf:li><rdf:li>yellow</rdf:li><rdf:li>yellow</rdf:li></rdf:Bag></dc:subject></cc:Work><cc:License rdf:about="http://creativecommons.org/licenses/publicdomain/"><cc:permits rdf:resource="http://creativecommons.org/ns#Reproduction"/><cc:permits rdf:resource="http://creativecommons.org/ns#Distribution"/><cc:permits rdf:resource="http://creativecommons.org/ns#DerivativeWorks"/></cc:License></rdf:RDF></metadata></svg>
