<?xml version="1.0" encoding="UTF-8" standalone="no"?>
<svg xmlns:xhv="http://www.w3.org/1999/xhtml/vocab#" xmlns:dc="http://purl.org/dc/elements/1.1/" xmlns:cc="http://creativecommons.org/ns#" xmlns:rdf="http://www.w3.org/1999/02/22-rdf-syntax-ns#" xmlns:svg="http://www.w3.org/2000/svg" xmlns="http://www.w3.org/2000/svg" xmlns:sodipodi="http://sodipodi.sourceforge.net/DTD/sodipodi-0.dtd" xmlns:inkscape="http://www.inkscape.org/namespaces/inkscape" version="1.1" viewBox="-26 -27 47 47" id="svg2" inkscape:version="0.47 r22583" width="100%" height="100%" sodipodi:docname="Thumbs_down_smiley.svg">
  <defs id="defs24">
    <inkscape:perspective sodipodi:type="inkscape:persp3d" inkscape:vp_x="0 : 23.5 : 1" inkscape:vp_y="0 : 1000 : 0" inkscape:vp_z="47 : 23.5 : 1" inkscape:persp3d-origin="23.5 : 15.666667 : 1" id="perspective26"/>
  </defs>
  <sodipodi:namedview pagecolor="#ffffff" bordercolor="#666666" borderopacity="1" objecttolerance="10" gridtolerance="10" guidetolerance="10" inkscape:pageopacity="0" inkscape:pageshadow="2" inkscape:window-width="905" inkscape:window-height="591" id="namedview22" showgrid="false" inkscape:zoom="7.0212766" inkscape:cx="23.5" inkscape:cy="23.5" inkscape:window-x="0" inkscape:window-y="1" inkscape:window-maximized="0" inkscape:current-layer="svg2"/>
  <title id="title4">Thumbs up smiley</title>
  <circle cx="0" cy="0" r="19" id="circle8" sodipodi:cx="0" sodipodi:cy="0" sodipodi:rx="19" sodipodi:ry="19" transform="translate(0.85454544,-6.4090893)" style="fill:#efff00;stroke:#000000;stroke-width:2"/>
  <circle cx="6" cy="-5" r="2" id="circle10" sodipodi:cx="6" sodipodi:cy="-5" sodipodi:rx="2" sodipodi:ry="2" transform="translate(1.5666665,-9.3999975)" style="fill:#000000"/>
  <circle cx="-6" cy="-5" r="2" id="circle12" sodipodi:cx="-6" sodipodi:cy="-5" sodipodi:rx="2" sodipodi:ry="2" transform="translate(1.9939391,-9.3999975)" style="fill:#000000"/>
  <path d="m 13.304186,4.9011628 a 11.31025,11.31025 0 1 0 -22.620499,0" id="path14" style="fill:none;stroke:#000000;stroke-width:3"/>
  <g transform="matrix(0.99862953,0.05233596,0.05233596,-0.99862953,-14.427313,-12.524782)" id="g16" style="stroke:#000000;stroke-width:2;stroke-linejoin:round">
    <path d="m 4.4,-12 a 3,3 0 0 1 0,6 H 5 a 2.9,2.9 0 0 1 0,5.8 L 4.1,0 a 2.7,2.7 0 0 1 0,5.4 L 2.4,5.5 a 2.3,2.3 0 0 1 0,4.6 L -6,11 A 3.4,3.4 0 0 1 -8.5,6 4,4 0 0 1 -9,0 a 4,4 0 0 1 0.4,-6 4,4 0 0 1 2,-6 z m -9.4,0 3,-4 0.5,-3 a 3.5,7 0 1 1 5.5,1 l 0.5,6 z" id="path18" style="fill:#efff00"/>
    <path d="m 4.4,-6 h -7 m 6.7,6 h -6.3 m 4.6,5.5 -4.7,0.2" id="path20" style="fill:none;stroke-linecap:round"/>
  </g>
  <metadata>
    <rdf:RDF>
      <cc:Work>
        <dc:format>image/svg+xml</dc:format>
        <dc:type rdf:resource="http://purl.org/dc/dcmitype/StillImage"/>
        <cc:license rdf:resource="http://creativecommons.org/licenses/publicdomain/"/>
        <dc:publisher>
          <cc:Agent rdf:about="http://openclipart.org/">
            <dc:title>Open Clip Art Library</dc:title>
          </cc:Agent>
        </dc:publisher>
        <dc:title>Thumbs down smiley</dc:title>
        <dc:date>2010-05-28T01:55:14</dc:date>
        <dc:description>Thumbs down smiley.  Good for rating stuff.</dc:description>
        <dc:source>http://openclipart.org/detail/63433/thumbs-down-smiley-by-sunking2</dc:source>
        <dc:creator>
          <cc:Agent>
            <dc:title>SunKing2</dc:title>
          </cc:Agent>
        </dc:creator>
        <dc:subject>
          <rdf:Bag>
            <rdf:li>OK</rdf:li>
            <rdf:li>approve</rdf:li>
            <rdf:li>approved</rdf:li>
            <rdf:li>bad</rdf:li>
            <rdf:li>clip art</rdf:li>
            <rdf:li>clipart</rdf:li>
            <rdf:li>comic</rdf:li>
            <rdf:li>disapprove</rdf:li>
            <rdf:li>disapproved</rdf:li>
            <rdf:li>down</rdf:li>
            <rdf:li>good</rdf:li>
            <rdf:li>happy</rdf:li>
            <rdf:li>rate</rdf:li>
            <rdf:li>rated</rdf:li>
            <rdf:li>rating</rdf:li>
            <rdf:li>sad</rdf:li>
            <rdf:li>smiley</rdf:li>
            <rdf:li>thumbs</rdf:li>
            <rdf:li>unhappy</rdf:li>
          </rdf:Bag>
        </dc:subject>
      </cc:Work>
      <cc:License rdf:about="http://creativecommons.org/licenses/publicdomain/">
        <cc:permits rdf:resource="http://creativecommons.org/ns#Reproduction"/>
        <cc:permits rdf:resource="http://creativecommons.org/ns#Distribution"/>
        <cc:permits rdf:resource="http://creativecommons.org/ns#DerivativeWorks"/>
      </cc:License>
    </rdf:RDF>
  </metadata>
</svg>
